<?xml version="1.0" encoding="UTF-8" standalone="no"?>
<!-- Created with Inkscape (http://www.inkscape.org/) -->

<svg
   xmlns:dc="http://purl.org/dc/elements/1.1/"
   xmlns:cc="http://creativecommons.org/ns#"
   xmlns:rdf="http://www.w3.org/1999/02/22-rdf-syntax-ns#"
   xmlns:svg="http://www.w3.org/2000/svg"
   xmlns="http://www.w3.org/2000/svg"
   xmlns:sodipodi="http://sodipodi.sourceforge.net/DTD/sodipodi-0.dtd"
   xmlns:inkscape="http://www.inkscape.org/namespaces/inkscape"
   width="744.09448819"
   height="1052.3622047"
   id="svg2"
   version="1.1"
   inkscape:version="0.48.4 r"
   sodipodi:docname="New document 1">
  <defs
     id="defs4" />
  <sodipodi:namedview
     id="base"
     pagecolor="#ffffff"
     bordercolor="#666666"
     borderopacity="1.0"
     inkscape:pageopacity="0.0"
     inkscape:pageshadow="2"
     inkscape:zoom="0.35"
     inkscape:cx="375"
     inkscape:cy="520"
     inkscape:document-units="px"
     inkscape:current-layer="layer1"
     showgrid="false"
     inkscape:window-width="944"
     inkscape:window-height="1002"
     inkscape:window-x="960"
     inkscape:window-y="0"
     inkscape:window-maximized="0" />
  <metadata
     id="metadata7">
    <rdf:RDF>
      <cc:Work
         rdf:about="">
        <dc:format>image/svg+xml</dc:format>
        <dc:type
           rdf:resource="http://purl.org/dc/dcmitype/StillImage" />
        <dc:title></dc:title>
      </cc:Work>
    </rdf:RDF>
  </metadata>
  <g
     inkscape:label="Layer 1"
     inkscape:groupmode="layer"
     id="layer1">
    <path
       style="fill:none;stroke:#000000;stroke-width:1px;stroke-linecap:butt;stroke-linejoin:miter;stroke-opacity:1"
       d="M 340,180.93361 171.42857,218.07647 77.142857,383.79075 54.285714,420.93361 c 0,0 -37.142857,-34.28571 -17.142857,20 20,54.28572 294.285713,31.42857 231.428573,-71.42857 C 205.71429,266.6479 245.71429,95.219325 245.71429,95.219325 l 120,-48.571428 c 0,0 97.14285,-8.571429 85.71428,71.428573 -11.42857,80 -57.14286,520 -97.14286,260 -40,-260 -240,-540 -200,-134.28572 40,405.71429 211.42858,677.14286 297.14286,594.28572 85.71429,-82.85714 34.28572,-628.57143 25.71429,-660 -8.57143,-31.42857 540.00004,77.14286 -102.85715,102.85714 -642.85714,25.71429 -697.14285,8.57143 -14.28571,-42.85714 682.8571,-51.42857 405.71429,-68.57143 -17.14286,-40 C -80,226.6479 -80,226.6479 -80,226.6479 l 0,0 c 0,0 111.428571,-2.85715 157.142857,-68.57143 C 122.85714,92.362183 185.71429,72.362183 317.14286,86.647897 448.57143,100.93361 340,180.93361 340,180.93361 z"
       id="path2985"
       inkscape:connector-curvature="0" />
  </g>
</svg>
